<svg xmlns="http://www.w3.org/2000/svg" viewBox="0 0 1920 1080">
  <defs>
    <radialGradient id="bg" cx="50%" cy="50%" r="50%" fx="50%" fy="50%">
      <stop offset="0%" stop-color="#141005" />
      <stop offset="100%" stop-color="#000000" />
    </radialGradient>
    <radialGradient id="glow" cx="50%" cy="40%" r="40%">
      <stop offset="0%" stop-color="rgba(234,179,8,0.15)" />
      <stop offset="100%" stop-color="rgba(0,0,0,0)" />
    </radialGradient>
  </defs>
  <rect width="100%" height="100%" fill="url(#bg)" />
  <circle cx="50%" cy="40%" r="800" fill="url(#glow)" />
  <!-- Abstract Dark Crow Silhouette or Wings -->
  <g transform="translate(960, 540) scale(1.5) ">
    <path d="M 0,100 C 150,-150 400,-100 600,-300 C 500,-50 300,50 0,200 Z" fill="#0a0a0a" opacity="0.8"/>
    <path d="M 0,100 C -150,-150 -400,-100 -600,-300 C -500,-50 -300,50 0,200 Z" fill="#050505" opacity="0.8"/>
    <path d="M 0,-150 L 30,-250 L 0,-300 L -30,-250 Z" fill="rgba(234,179,8,0.2)" />
    <path d="M 0,-100 C 50,-150 150,-200 250,-150 C 150,-80 50,-50 0,0 Z" fill="#111" />
    <path d="M 0,-100 C -50,-150 -150,-200 -250,-150 C -150,-80 -50,-50 0,0 Z" fill="#0d0d0d" />
    <path d="M 0,0 C 80,-50 200,-100 350,-50 C 250,20 100,50 0,100 Z" fill="#1a1a1a" />
    <path d="M 0,0 C -80,-50 -200,-100 -350,-50 C -250,20 -100,50 0,100 Z" fill="#171717" />
    <polygon points="0,-180 100,-350 0,-300" fill="#222" opacity="0.5" />
    <polygon points="0,-180 -100,-350 0,-300" fill="#111" opacity="0.5" />
  </g>
</svg>
